<svg xmlns="http://www.w3.org/2000/svg" xmlns:xlink="http://www.w3.org/1999/xlink" width="150" height="150" viewBox="0 0 150 150"><defs><linearGradient id="linear-gradient" x1="8944.99" y1="579.85" x2="8943.99" y2="580.97" gradientTransform="matrix(93.95, 0, 0, -49.73, -840254.42, 28936.31)" gradientUnits="userSpaceOnUse"><stop offset="0" stop-color="#a63cef"/><stop offset="1" stop-color="#ef9acc"/></linearGradient></defs><g id="Layer_2" data-name="Layer 2"><g id="Layer_1-2" data-name="Layer 1"><path d="M0,0H150V150H0Z" style="fill:none"/><path d="M28,44.2H52.1l21,19.2a2.66,2.66,0,0,0,3.7,0L97.3,44.2H122V93.9H28Z" style="fill-opacity:0.8999999761581421;fill-rule:evenodd;fill:url(#linear-gradient)"/><path d="M86.9,122.1H62.8l1.6-12.5H85.2Z" style="fill:none;stroke:#5e5e5e;stroke-linecap:round;stroke-linejoin:round;stroke-width:3px"/><path d="M49.3,129v-3.9a3.12,3.12,0,0,1,3.1-3.1H97.5a3.12,3.12,0,0,1,3.1,3.1V129ZM62.9,36.3H28a3.22,3.22,0,0,0-3.2,3.2v66.3A3.16,3.16,0,0,0,28,109h93.7a3.16,3.16,0,0,0,3.2-3.2V39.5a3.16,3.16,0,0,0-3.2-3.2h-35" style="fill:none;stroke:#5e5e5e;stroke-linecap:round;stroke-linejoin:round;stroke-width:3px"/><path d="M85.3,45.4V24.3H64.5V45.5H57.7L74.9,61.1,92.1,45.5Z" style="fill:none;stroke:#5e5e5e;stroke-linecap:round;stroke-linejoin:round;stroke-width:3px"/><path d="M81,67.7,108.8,82M50.1,62.3,92.3,84.9" style="fill:none;stroke:#fff;stroke-linecap:round;stroke-linejoin:round;stroke-width:1.5px"/></g></g></svg>