<?xml version="1.0" encoding="UTF-8"?>
<svg width="208px" height="208px" viewBox="0 0 208 208" version="1.1" xmlns="http://www.w3.org/2000/svg" xmlns:xlink="http://www.w3.org/1999/xlink">
    <!-- Generator: Sketch 51.3 (57544) - http://www.bohemiancoding.com/sketch -->
    <title>computer</title>
    <desc>Created with Sketch.</desc>
    <defs>
        <linearGradient x1="77.2659863%" y1="-7.45237079%" x2="0%" y2="122.231574%" id="linearGradient-1">
            <stop stop-color="#E0E0E0" offset="0%"></stop>
            <stop stop-color="#F0F0F0" stop-opacity="0.493744339" offset="100%"></stop>
        </linearGradient>
        <linearGradient x1="105.25243%" y1="3.03693499%" x2="-2.23700945%" y2="103.922817%" id="linearGradient-2">
            <stop stop-color="#E0E0E0" offset="0%"></stop>
            <stop stop-color="#F0F0F0" stop-opacity="0.493744339" offset="100%"></stop>
        </linearGradient>
    </defs>
    <g id="computer" stroke="none" stroke-width="1" fill="none" fill-rule="evenodd">
        <rect id="Rectangle-Copy-2" fill-rule="nonzero" x="0" y="0" width="208" height="208"></rect>
        <g id="Computer_icon" transform="translate(30.000000, 38.000000)">
            <path d="M46.5,126.477528 L100.5,126.477528 L100.5,133.0523 C100.5,134.404127 99.4041274,135.5 98.0523,135.5 L48.9477,135.5 C47.5958726,135.5 46.5,134.404127 46.5,133.0523 L46.5,126.477528 Z" id="Rectangle-24" stroke="#5E5E5E" stroke-width="3" stroke-linecap="round" stroke-linejoin="round"></path>
            <path d="M86.8801594,100.839635 C87.8092311,109.989658 88.7706671,115.789698 89.6994137,118.058717 C90.6985238,120.499641 94.006351,123.213633 99.6493053,126.037374 C100.546095,126.486204 100.909299,127.577028 100.460519,128.47387 C100.152818,129.088777 99.5241973,129.477147 98.8366038,129.477147 L48.1485961,129.477294 C47.1456213,129.477294 46.3325496,128.664222 46.3325496,127.661247 C46.3325496,126.951608 46.7458958,126.306978 47.3908011,126.010862 C52.3445773,123.736274 55.5672168,121.036445 57.1175181,117.953113 C58.4931672,115.217139 59.5505391,109.444028 60.2130947,100.762263 L60.322987,99.3222936 L61.7660877,99.3775009 C63.0600597,99.4270032 67.5031349,99.4592936 74.0052003,99.476823 C76.3600492,99.4831716 78.8493583,99.4871988 81.3550768,99.4893697 C82.2784381,99.4901697 83.1551728,99.4906719 83.9793683,99.4909382 C84.5317538,99.4911166 84.918416,99.4911623 85.3878325,99.4911623 L86.7432386,99.4911623 L86.8801594,100.839635 Z" id="Rectangle-23" stroke="#5E5E5E" stroke-width="3" fill="#FFFFFF" stroke-linecap="round" stroke-linejoin="round"></path>
            <path d="M83.3129142,102.382022 C83.6302518,105.893733 84.8411125,114.453584 85.4537282,116.049708 C86.8134454,119.592348 57.7361356,120.52158 60.1414943,115.158946 C61.1920746,112.816727 62.0070315,108.557752 62.5863647,102.382022 C64.7118534,102.382022 80.9972156,102.382022 83.3129142,102.382022 Z" id="Rectangle-23" fill-opacity="0.9" fill="url(#linearGradient-1)"></path>
            <rect id="Rectangle-22" stroke="#5E5E5E" stroke-width="3" fill="#FFFFFF" stroke-linecap="round" stroke-linejoin="round" x="-1.5" y="-1.5" width="150" height="100.865169" rx="3.7908"></rect>
            <rect id="Rectangle-22" fill-opacity="0.9" fill="url(#linearGradient-2)" x="1.5" y="1.50561798" width="144" height="93.3483146" rx="3"></rect>
            <rect id="Rectangle-22" fill="#FFFFFF" x="3" y="9.03370787" width="139.5" height="72.2696629" rx="1.2636"></rect>
            <path d="M58.5,31.6179775 L107.175,57.872191" id="Stroke-8" stroke="#5E5E5E" stroke-width="1.5" stroke-linecap="round" stroke-linejoin="round"></path>
            <path d="M37.5,33.1235955 L78.66,53.3915298" id="Stroke-8-Copy" stroke="#5E5E5E" stroke-width="1.5" stroke-linecap="round" stroke-linejoin="round"></path>
            <ellipse id="Oval-4" fill="#5E5E5E" cx="74.25" cy="5.26966292" rx="1" ry="1"></ellipse>
        </g>
    </g>
</svg>