<svg xmlns="http://www.w3.org/2000/svg" xmlns:xlink="http://www.w3.org/1999/xlink" width="150" height="150" viewBox="0 0 150 150"><defs><linearGradient id="linear-gradient" x1="9318.96" y1="563.44" x2="9317.74" y2="562.43" gradientTransform="matrix(57.88, 0, 0, -33.22, -539267.97, 18808.38)" gradientUnits="userSpaceOnUse"><stop offset="0" stop-color="#e0e0e0"/><stop offset="1" stop-color="#f0f0f0" stop-opacity="0.49"/></linearGradient><linearGradient id="linear-gradient-2" x1="9314.39" y1="586.7" x2="9315.65" y2="584.68" gradientTransform="matrix(56.87, 0, 0, -58.75, -529662.19, 34478.26)" gradientUnits="userSpaceOnUse"><stop offset="0" stop-color="#ef3c3c"/><stop offset="1" stop-color="#ed8181"/></linearGradient></defs><g id="Layer_2" data-name="Layer 2"><g id="Layer_1-2" data-name="Layer 1"><path d="M0,0H150V150H0Z" style="fill:none"/><path d="M108.9,88.9H104L87.9,108.6v11.5H67.2V106.9L51.8,92.6,51,93.8v27.7l52.6.5c4.4,0,5.3-1.2,5.3-5.3V88.9Z" style="fill-opacity:0.8999999761581421;fill-rule:evenodd;fill:url(#linear-gradient)"/><path d="M66.1,63.6c1.4,5.2,9.2,8.8,14.5,3.9,5.7-5.3,0-12.1-3.2-14.3,8.3-7.5,15.7-14.1,17.5-15.8l2.7-2.8a2.9,2.9,0,1,1,4.1,4.1l-2.8,2.8A31.53,31.53,0,0,1,100.5,79S92.4,94.1,70.9,92.4C73,90,82.2,78.3,82.2,78.3l-3-3.2s-13.7,11.1-18,14.4C53.6,86.9,49.1,79,49.1,79c1.7-1.6,8.4-7.5,17-15.4Z" style="fill-rule:evenodd;fill:url(#linear-gradient-2)"/><path d="M74.8,32.5A28.82,28.82,0,0,0,63.2,87.6L79.4,74.1l3.7,3.7L73,90c.6,0,1.2.1,1.8.1a28.8,28.8,0,0,0,0-57.6Z" style="fill:none;stroke:#5e5e5e;stroke-linecap:round;stroke-linejoin:round;stroke-width:3px"/><path d="M74.8,70.1a8.75,8.75,0,1,1,8.7-8.8v.1A8.84,8.84,0,0,1,74.8,70.1Z" style="fill:none;stroke:#5e5e5e;stroke-linecap:round;stroke-linejoin:round;stroke-width:3px"/><path d="M77,61.3a2.25,2.25,0,1,1-4.5.3v-.3A2.25,2.25,0,0,1,77,61Zm35.3,23.5H101.6L83.4,106.6v13.6H71.6v-15L51.4,86.4,47,90.7v34.2" style="fill:none;stroke:#5e5e5e;stroke-linecap:round;stroke-linejoin:round;stroke-width:3px"/><path d="M107.3,25.3h-65a5,5,0,0,0-5,5.1v89.5a5.1,5.1,0,0,0,5,5.1h65a5,5,0,0,0,5-5.1V30.4A5,5,0,0,0,107.3,25.3Z" style="fill:none;stroke:#5e5e5e;stroke-linecap:round;stroke-linejoin:round;stroke-width:3px"/></g></g></svg>