<svg xmlns="http://www.w3.org/2000/svg" xmlns:xlink="http://www.w3.org/1999/xlink" width="150" height="150" viewBox="0 0 150 150"><defs><linearGradient id="linear-gradient" x1="6909.86" y1="578.97" x2="6911.13" y2="575.62" gradientTransform="matrix(10.5, 0, 0, -46.5, -72481.5, 26960)" gradientUnits="userSpaceOnUse"><stop offset="0" stop-color="#fad961"/><stop offset="1" stop-color="#f76b1c"/></linearGradient></defs><g id="Layer_2" data-name="Layer 2"><g id="Layer_1-2" data-name="Layer 1"><rect width="150" height="150" style="fill:none"/><path d="M79.3,91h-7L70.8,60H80.9Zm-8.8,10.4a5.35,5.35,0,0,1,1.3-3.8,5.16,5.16,0,0,1,3.9-1.3,5.44,5.44,0,0,1,3.9,1.3,5.2,5.2,0,0,1,1.3,3.8,4.89,4.89,0,0,1-1.4,3.8,5.59,5.59,0,0,1-3.9,1.3,5.25,5.25,0,0,1-3.9-1.4,5.17,5.17,0,0,1-1.2-3.7Z" style="fill-rule:evenodd;fill:url(#linear-gradient)"/><path d="M58.8,69.1A3.7,3.7,0,0,0,57.4,72V99.9a2.52,2.52,0,0,0,.9,2,33,33,0,0,0,4.3,3,15.05,15.05,0,0,0,2.2,1.1v5.9a1.85,1.85,0,0,0,1.1,1.7l1.8.6A27.33,27.33,0,0,0,87,113.1a1.78,1.78,0,0,0,1-1.6v-6a25.41,25.41,0,0,0,5.4-3.6,2.52,2.52,0,0,0,.9-2V72a3.37,3.37,0,0,0-1.4-2.8,27.09,27.09,0,0,0-34.1-.1Zm23.4,45.6v-6.1m-12.1,6.1v-6.1m5.8,6.7v-6" style="fill:none;stroke:#5e5e5e;stroke-linecap:round;stroke-linejoin:round;stroke-width:3px"/><path d="M72.8,86.5c.6,0,1.5,2.3,1.5,3C74.3,91.9,71,95,68,95s-6.2-3.2-6.2-4.9c0-2.3.6-4.1,2.1-4,.7.1,5,.1,8.9.4Zm6.1,0c-.6,0-1.5,2.3-1.5,3,0,2.4,3.3,5.5,6.3,5.5s6.2-3.2,6.2-4.9c0-2.3-.6-4.1-2.1-4-.6.1-4.9.1-8.9.4Zm-.2,11.9c-.8-.9-2-3-2.8-3.8h-.2c-.7.8-1.9,3-2.8,3.8-.7.7.2,2.7.9,2.7.4,0,1.5-1.3,1.9-1.3s1.5,1.3,2,1.3c.9,0,1.8-2,1-2.7Z" style="fill:none;stroke:#5e5e5e;stroke-linecap:round;stroke-linejoin:round;stroke-width:3px"/><path d="M30.3,121.4h91a4.48,4.48,0,0,0,4.5-4.5,4,4,0,0,0-.6-2.2L79.7,35.3a4.46,4.46,0,0,0-6.1-1.7,4.62,4.62,0,0,0-1.7,1.7L26.4,114.7a4.46,4.46,0,0,0,1.7,6.1h0a4,4,0,0,0,2.2.6Z" style="fill:none;stroke:#5e5e5e;stroke-linecap:round;stroke-linejoin:round;stroke-width:3px"/></g></g></svg>